<?xml version="1.0" encoding="UTF-8"?>
<svg id="_レイヤー_2" data-name="レイヤー 2" xmlns="http://www.w3.org/2000/svg" viewBox="0 0 24 24">
  <defs>
    <style>
      .cls-1 {
        fill: none;
      }

      .cls-2 {
        fill: #231815;
      }
    </style>
  </defs>
  <g id="_レイヤー_1-2" data-name="レイヤー 1">
    <g>
      <rect class="cls-1" width="24" height="24"/>
      <path class="cls-2" d="M12,2C6.48,2,2,6.48,2,12s4.48,10,10,10,10-4.48,10-10S17.52,2,12,2ZM18.71,8.71l-8,8c-.2.2-.45.29-.71.29s-.51-.1-.71-.29l-4-4c-.39-.39-.39-1.02,0-1.41s1.02-.39,1.41,0l3.29,3.29,7.29-7.29c.39-.39,1.02-.39,1.41,0s.39,1.02,0,1.41Z"/>
    </g>
  </g>
</svg>