<?xml version="1.0" encoding="UTF-8"?>
<svg id="_レイヤー_2" data-name="レイヤー 2" xmlns="http://www.w3.org/2000/svg" viewBox="0 0 24 24">
  <defs>
    <style>
      .cls-1 {
        fill: none;
      }

      .cls-2 {
        fill: #231815;
      }
    </style>
  </defs>
  <g id="_レイヤー_1-2" data-name="レイヤー 1">
    <g>
      <rect class="cls-1" width="24" height="24"/>
      <g>
        <circle class="cls-2" cx="13" cy="10.27" r="2"/>
        <path class="cls-2" d="M20.2,9.8l-3.5,6.06c-.27.48-.89.64-1.37.37s-.64-.89-.37-1.37l3.5-6.06c1.11-1.91.45-4.36-1.46-5.46s-4.36-.45-5.46,1.46l-.5.87c-.27.48-.89.64-1.37.37s-.64-.89-.37-1.37l.5-.87C11.46.94,15.13-.05,18,1.61s3.85,5.33,2.2,8.2Z"/>
        <path class="cls-2" d="M14.7,19.33l-.5.87c-1.66,2.87-5.33,3.85-8.2,2.2s-3.85-5.33-2.2-8.2l3.5-6.06c.27-.48.89-.64,1.37-.37s.64.89.37,1.37l-3.5,6.06c-1.1,1.91-.45,4.36,1.46,5.46s4.36.45,5.46-1.46l.5-.87c.27-.48.89-.64,1.37-.37s.64.89.37,1.37Z"/>
      </g>
    </g>
  </g>
</svg>