<?xml version="1.0" encoding="UTF-8"?>
<svg id="_レイヤー_2" data-name="レイヤー 2" xmlns="http://www.w3.org/2000/svg" viewBox="0 0 24 24">
  <defs>
    <style>
      .cls-1 {
        fill: #fff;
      }

      .cls-2 {
        fill: #231815;
      }
    </style>
  </defs>
  <g id="_レイヤー_1-2" data-name="レイヤー 1">
    <g>
      <rect class="cls-2" width="24" height="24" rx="4" ry="4"/>
      <g>
        <circle class="cls-1" cx="12.84" cy="10.55" r="1.68"/>
        <path class="cls-1" d="M18.88,10.16l-2.94,5.09c-.23.4-.75.54-1.15.31s-.54-.75-.31-1.15l2.94-5.09c.93-1.61.38-3.66-1.23-4.59s-3.66-.38-4.59,1.23l-.42.73c-.23.4-.75.54-1.15.31s-.54-.75-.31-1.15l.42-.73c1.39-2.41,4.48-3.23,6.88-1.84s3.23,4.48,1.84,6.88Z"/>
        <path class="cls-1" d="M14.26,18.16l-.42.73c-1.39,2.41-4.48,3.23-6.88,1.84s-3.23-4.48-1.84-6.88l2.94-5.09c.23-.4.75-.54,1.15-.31s.54.75.31,1.15l-2.94,5.09c-.93,1.61-.38,3.66,1.23,4.59s3.66.38,4.59-1.23l.42-.73c.23-.4.75-.54,1.15-.31s.54.75.31,1.15Z"/>
      </g>
    </g>
  </g>
</svg>