<?xml version="1.0" encoding="UTF-8"?>
<svg id="_レイヤー_2" data-name="レイヤー 2" xmlns="http://www.w3.org/2000/svg" viewBox="0 0 24 24">
  <defs>
    <style>
      .cls-1 {
        fill: none;
      }

      .cls-2 {
        fill: #231815;
      }
    </style>
  </defs>
  <g id="_レイヤー_1-2" data-name="レイヤー 1">
    <g>
      <rect class="cls-1" width="24" height="24"/>
      <g>
        <circle class="cls-2" cx="12" cy="10" r="2"/>
        <path class="cls-2" d="M20,23H4c-.37,0-.71-.2-.88-.53-.17-.33-.15-.72.05-1.03l4-6c.31-.46.93-.58,1.39-.28.46.31.58.93.28,1.39l-2.96,4.45h12.26l-2.96-4.45c-.31-.46-.18-1.08.28-1.39.46-.31,1.08-.18,1.39.28l4,6c.2.31.22.7.05,1.03-.17.33-.51.53-.88.53Z"/>
        <path class="cls-2" d="M16,9c-.19,0-.38-.05-.55-.17-.46-.31-.58-.93-.28-1.39l2.96-4.45H5.87l2.96,4.45c.31.46.18,1.08-.28,1.39-.46.31-1.08.18-1.39-.28L3.17,2.55c-.2-.31-.22-.7-.05-1.03.17-.33.51-.53.88-.53h16c.37,0,.71.2.88.53.17.33.15.72-.05,1.03l-4,6c-.19.29-.51.45-.83.45Z"/>
      </g>
    </g>
  </g>
</svg>